<?xml version="1.0" encoding="utf-8"?>
<!-- Generator: Adobe Illustrator 19.0.0, SVG Export Plug-In . SVG Version: 6.00 Build 0)  -->
<svg version="1.1" id="Layer_1" xmlns="http://www.w3.org/2000/svg" xmlns:xlink="http://www.w3.org/1999/xlink" x="0px" y="0px"
	 viewBox="0 0 277.3 131.3" style="enable-background:new 0 0 277.3 131.3;" xml:space="preserve">
<path d="M229.6,86.2c-3.5-3.2-7-2.1-10.5-2.4c1.1-2.2,2.7-2.5,4.2-2.3c4,0.4,7.4,2.1,9.7,5.4c-0.5,1.8-1.8,2-3,2.1
	c-4.2,0.3-8.5,0.6-12.8,0.8c-10.6,0.4-21.3,1-31.8,2.6c-7.7,1.2-15.4,2.6-23.1,3.7c-12.9,1.9-25.3,5.4-37.8,9
	c-7,2-13.9,4.1-20.9,6.2c-1.3,0.4-2.5,1.2-3.7,1.7c-0.2,1.1-0.4,1.9-0.6,3.1c-3,0.1-5.9,0.3-8.6,0.4c-1-1-1.1-2-0.3-2.6
	c0.9-0.8,2.1-1.3,3.2-1.8c6.7-2.9,13.6-5,20.6-7.1c11.2-3.3,22.5-6.4,34-8.6c6.8-1.3,13.6-2.3,20.5-3.3c7.7-1.2,15.4-2.7,23.1-3.5
	c8.4-0.9,17-1.2,25.5-1.7c3-0.2,6-0.2,9-0.5C227.3,87.2,228.1,86.8,229.6,86.2"/>
<path d="M10,95.8c0.2-0.5,0.2-1.2,0.6-1.4c0.9-0.7,1.9-1.2,2.9-1.7c7.9-3.7,16-6.8,24.2-9.5c2.2-0.7,3.6-2,4.8-4
	c4.1-7.7,8.3-15.2,12.5-22.8c0.7-1.2,1.3-2.4,2-3.6c0.9-1.6,1.5-3.3,1.6-5.2c0.1-1.1,0.2-2.3,0.5-3.4c0.3-1.1,1.3-1.6,2.1-1.4
	c0.9,0.3,1.7,1.5,1.6,2.4c0,0.2-0.1,0.5-0.2,0.7c-2,3.8-2.2,7.9-2.4,12c-0.3,5.7-0.2,11.4-0.2,17.1c0,0.5,0.2,1.1,0.3,1.5
	c0.4,0.1,0.6,0.2,0.8,0.2c3.8-1.3,7.7-2,11.4-3.7c1.7-0.8,3.5-1,5.3-0.9c0.8,0.1,1.1,1,0.5,1.6c-0.4,0.4-0.9,0.7-1.5,1.2
	c0.5,1.5,0.7,3-0.7,4.3c-0.6,0.5-0.7,1.4-1.1,2.1c-0.4,0.7-1.1,1.2-2,1c-0.8-0.1-1.4-0.9-1.5-2.1c0-1.2,0-2.5,0.1-3.7
	c-0.3-0.1-0.5-0.3-0.7-0.3c-3.1,0.9-6.1,1.8-9.2,2.8c-1.4,0.4-2,1.4-2,2.8c0.1,6.2-1,12.3-0.1,18.5c0.1,0.3,0.1,0.7,0.1,1
	c0,0.7-0.1,1.4-0.9,1.6c-0.7,0.2-1.3-0.4-1.5-1.5c-0.1-0.4-0.1-0.9-0.2-1.4c-0.3-4.2-1.3-8.4-2.6-12.4c-0.4-1.3-1.1-2.5-1.8-3.7
	c-0.6-1-1.6-1.3-2.7-0.9c-2.9,1.1-5.7,2.3-8.5,3.5c-0.7,0.3-1.3,0.9-1.8,1.6c-0.8,1.1-1.6,2.3-2.2,3.5c-2.3,4.6-4.5,9.2-6.8,13.8
	c-0.6,1.2-1.2,2.5-1.9,3.7c-0.3,0.5-0.7,0.9-1.1,1.3c-0.7,0.6-1.6,0.3-2-0.4c-0.9-1.8-1.2-3.7-0.4-5.6c0.2-0.4,0.8-0.9,1.3-1
	c0.7-0.1,0.9,0.6,1.1,1.1c0,0.1,0.1,0.2,0.4,0.5c1.3-1.6,2.1-3.5,3.1-5.2c1-1.8,2-3.6,2.9-5.4c0.9-1.8,2.1-3.5,2.8-5.7
	c-0.7,0.1-1.2,0-1.5,0.2c-4.5,1.7-8.9,3.6-13.4,5.3c-2.7,1-5.4,1.7-8.2,2.4C12.2,96.7,12.2,96.5,10,95.8 M57.7,55.9
	C57.3,56,57,56,56.9,56.2c-4.3,7.9-8.6,15.8-12.8,23.7c-0.1,0.3,0,0.6,0,1c4.8,0.7,8.9-1.1,13.2-3.1C57.5,70.4,57.8,63.2,57.7,55.9
	 M38.6,85c-0.1-0.3-0.2-0.5-0.3-0.8c-6.5,2.5-13,4.9-19.2,8.2c6.5-1.4,12.2-4.7,18.4-6.7C38,85.5,38.3,85.2,38.6,85 M56.6,87.2
	c0.8-2.2,0.8-4.1,0.2-6c-1.9,0.1-1.9,0.1-3.1,1.2C54.7,84,55.6,85.6,56.6,87.2 M43.6,83.1c0-0.1-0.1-0.2-0.1-0.2
	c-0.2,0-0.4,0.1-0.6,0.2c0,0.1,0.1,0.2,0.1,0.2C43.2,83.2,43.4,83.1,43.6,83.1"/>
<path d="M254.5,69.3c-1.7-1.6-1.6-3.7-1.7-5.6c-0.2-5.4-0.4-10.7-0.5-16.1c0-5.8,0.2-11.6,0.2-17.4c0-1.3-0.1-2.6-0.2-3.8
	c0-0.2-0.1-0.4-0.1-0.6c0.2-5.3,1-10.5,1.3-15.9c0-0.4,0.8-1,1.2-1c0.4,0,1.1,0.4,1.3,0.9c0.4,1.1,0.8,2.4,0.8,3.6
	c-0.1,3.4-0.3,6.9-0.6,10.3c-1.1,10.9-0.9,21.9-0.8,32.9c0,1.4,0.7,2.8,1.1,4.2c0.7,2.3,0.7,4.7-0.2,6.9
	C256,68.4,255.1,68.8,254.5,69.3"/>
<path d="M246.6,52.3c1.1,0.1,1.9,0.2,2.9,0.3c-0.7,2.5-1.6,4.8-2,7.2c-0.4,2.3-0.4,4.6-0.5,6.9c0,0.3-0.1,0.8-0.3,1
	c-0.6,0.6-1.2,1.4-1.9,1.6c-1,0.2-1.4-0.8-1.4-1.8c0-0.2,0-0.4,0-0.5c0.7-13.5-0.5-26.9,0-40.4c0-0.7-0.1-1.5,0.2-2.1
	c0.2-0.5,0.9-1.2,1.4-1.2c0.6,0,1.5,0.6,1.6,1.1c0.3,1.3,0.5,2.8,0.5,4.2c-0.2,6.2-0.4,12.4-0.6,18.6
	C246.4,48.8,246.6,50.6,246.6,52.3"/>
<path d="M177.6,75.8c3.3-2.2,4.1-5.1,3.7-7.8c-0.3-2.1-0.4-4.1-0.3-6.1c0.1-1-0.5-2-0.7-2.8c0.8-1.3,1.7-1,2.5-0.6
	c0.9,0.4,1.4,1.3,1.1,2.2c-0.9,3-0.4,6-0.3,9c0.1,2-0.1,3.9-1,5.7c-1.7,3.6-3.9,4.8-8.9,4.4c-0.6,0.7-1.2,1.5-1.9,2.3
	c-3.1,3.3-6.3,3.6-9.8,0.7c-1.8-1.5-3.3-3.2-4.9-4.8c-1.4,0.1-1.2,1.2-1.2,2c-0.2,2.1-0.2,4.2-0.3,6.4c0,0.9,0,1.8-0.2,2.6
	c-0.2,0.6-0.9,1.2-1.4,1.3c-0.4,0.1-1.3-0.7-1.4-1.2c-0.3-1.9-0.4-3.9-0.5-5.8c-0.3-4.2-0.5-8.4-0.8-12.7c-2.3-0.3-3.1,1.4-4.3,2.2
	c-1.5,1-2.8,2.2-4.1,3.3c-1.2,1-2.4,2.1-2.6,3.9c1.8,2.2,5.1,2.8,6.2,6.1c-0.4,0.5-0.8,1.4-1.5,1.8c-5.5,2.9-11.5,4.7-17.7,5.3
	c-0.2,0-0.4,0-0.5,0c-1.5,0-2.3-1.4-1.7-2.6c0.2-0.5,0.5-0.9,0.9-1.3c1.6-1.9,3.2-3.8,4.9-5.6c0.9-1,2-2,3.2-3.2
	c-0.9-0.9-1.7-1.5-2.4-2.2c-1-1-2.2-1.8-3.1-2.9c-1.9-2.4-3-5.1-0.3-8.7c3-3.8,6.1-7.4,10.4-9.7c0.8-0.4,1.6-0.7,2.4-1
	c0.8-0.2,2,0.7,1.9,1.4c-0.5,3.7-1.5,7.2-4,10.1c-0.2,0.2-0.8,0.3-0.9,0.2c-0.3-0.3-0.7-0.9-0.6-1.2c0.3-1.4,0.8-2.7,1.1-4
	c0-0.1-0.2-0.3-0.4-0.8c-0.5,0.2-1.3,0.2-1.7,0.7c-1.8,1.9-3.7,3.8-5.3,5.9c-1.4,1.9-1.3,3.5,0.3,5.3c1,1.2,2.2,2.3,3.4,3.3
	c1.3,1.1,2.5,1.1,3.9,0c4.1-3.3,8.2-6.7,12.4-10.2c-0.1-2.4-0.3-4.7-0.3-7c0.1-4.9,3.1-7.9,7.9-8.4c2.2-0.2,3.8,0.6,5,2.4
	c1.1,1.7,0.7,3.4-0.3,5c-0.7,1-1.5,2-2.3,2.9c-0.9,0.9-1.8,1.8-2.9,2.4c-3.8,2.1-4.6,5.1-3.2,9.3c2.7,0.7,4.6,2.7,6.2,5.1
	c0.7,1,1.6,1.9,2.6,2.6c2.8,2.1,5.3,1.3,6.9-1.9c1.3-2.7,1.6-5.4,0.7-8.3c-0.2-0.7-0.5-1.3-0.7-2c-0.2-1.2,1-2.4,2.2-2.6
	c1-0.1,1.9,0.7,2.1,1.9c0.3,1.6,0.5,3.2,0.9,4.7C176.1,73.7,176.8,74.5,177.6,75.8 M136.2,82.1c-2.4,1.5-4.4,3.4-6.2,5.5
	c-0.6,0.7-1,1.5,0,2.5c3.6-0.6,7.3-1.6,11-2.9c0.9-0.3,1.4-0.9,1.2-2.3C140.5,83.7,138.7,82.5,136.2,82.1 M154.7,63
	c2.4-0.8,4.1-2.5,5.7-4.3c1.2-1.4,1.4-2.8,0.6-3.8c-0.8-1-2.4-1.3-3.9-0.7c-1.2,0.5-2.1,1.2-2.5,2.5C153.9,58.8,153.6,60.8,154.7,63
	"/>
<path d="M219.9,53.7c-1-0.5-1.8-0.9-2.7-1.4c0.3-0.5,0.5-0.9,0.7-1.3c0.1-0.1,0.3-0.1,0.5-0.2c6.8-1.5,11.2,1.5,12,8.4
	c0.3,2.9,0.1,5.8-1,8.4c-1.5,3.9-4.6,6.3-8.6,7.3c-2.4,0.5-4.6-0.2-6.2-2.2c-1.9-2.3-3-4.9-2.5-7.9c0.8-4.3,2.2-8.3,6.9-9.9
	C219.3,54.9,219.4,54.4,219.9,53.7 M215.8,62.6c-1,3-1,3.3-0.8,5c0.7,4.6,4,5.9,8.1,3.7c5-2.7,6.6-11.4,3.2-15.8
	c-0.7-1-1.4-2.1-2.9-1.8C221.7,60.7,220.7,61.8,215.8,62.6"/>
<path d="M205.5,55.3c2.7,2.1,4.3,4.3,5.6,7.7c-1.8-0.6-2.9-0.9-4.3-1.4c-1.1,3.2-2.2,6.4-3.3,9.5c-0.5,1.5-1,3-1.9,4.4
	c-1.6,2.5-4.3,2.6-6.1,0.3c-1.7-2.1-3.2-4.3-4.6-6.5c-1.1-1.6-1.1-3.3,0.6-5.1c0.6,0.6,1.2,1.1,1.6,1.8c1.3,2.3,2.4,4.7,3.7,7
	c0.4,0.6,1.4,1.3,2.1,1.2c0.7-0.1,1.5-1,1.7-1.7c1.4-4.6,2.6-9.2,3.9-13.7C204.8,57.8,205,56.8,205.5,55.3"/>
<path d="M239.4,51.3c0.2,3.5,0.5,7.9,0.8,12.3c0.1,1.4,0.2,2.8,0,4.2c-0.1,0.5-0.7,1.3-1.3,1.4c-0.5,0.1-1.3-0.4-1.6-0.9
	c-0.4-0.5-0.5-1.3-0.6-2c-0.2-1.8-0.4-3.5-0.4-5.3c0-5.8,0.1-11.7,0.1-17.5c0-1.1,0.1-2.1,0.2-3.2c0.1-0.9,0.4-2,1.5-1.7
	c0.7,0.1,1.5,1.1,1.6,1.8c0.3,1.9,0.4,3.8,0.3,5.8C240,47.6,239.7,49,239.4,51.3"/>
<path d="M105.8,74.4c-2.6,1.5-4.5,2.7-6.5,3.6c-2.9,1.4-5.6,0.7-7.9-1.3c-1.4-1.3-2.7-2.8-4.3-4.5c-0.5,0.7-1.2,1.2-1.5,1.9
	c-2.6,5.6-3.3,11.5-2.9,17.6c0.1,1.8,0.4,3.5,0.2,5.3c-0.1,0.6-1,1.5-1.7,1.8c-0.9,0.4-1.7-0.3-1.9-1.3c-0.4-1.9-1-3.8-0.9-5.7
	c0.2-3.7,0.4-7.5,1.2-11.1c1.1-5.2,2.7-10.3,4.1-15.4c0.2-0.8,0.5-1.7,1-2.4c0.9-1.4,3.3-1.3,4.1,0.1c0.7,1.4,1.2,2.9,1.7,4.4
	c0.5,1.5,0.9,3.1,1.6,4.5c1.5,3,4.1,3.7,7.1,2.2c3.5-1.8,5.8-4.6,6.9-8.4c0.4-1.3,0.8-2.7,1.3-4c0.4-1,1.9-1.6,2.7-1.1
	c0.6,0.5,1.3,1.4,1.3,2c-0.4,4.6-0.9,9.2-1.5,13.7c-0.3,2.3-0.7,4.6-1.1,6.8c-0.3,1.8-0.6,3.3,1.2,4.8c1.3,1.1,0.7,3,0.2,4.5
	c-0.5,1.9-1.3,3.7-3.8,4.4c-0.5-0.8-1.2-1.6-1.6-2.5c-1-2.9-0.5-6-0.3-9c0.2-2.8,0.8-5.6,1.2-8.4C105.9,76.4,105.8,75.7,105.8,74.4"
	/>
<path d="M119,79.6c0.2,1.3,0.5,2.4,0.7,3.6c0.2,1.2-0.5,2-1.5,2.4c-1.2,0.4-2.4,0.4-3.4-0.6c-1-1.1-1.3-2.4-0.7-3.8
	c0.5-1.2,1.4-2,2.8-1.9C117.5,79.3,118.1,79.4,119,79.6"/>
</svg>
