<?xml version="1.0" encoding="utf-8"?>
<!-- Generator: Adobe Illustrator 19.0.0, SVG Export Plug-In . SVG Version: 6.00 Build 0)  -->
<svg version="1.1" xmlns="http://www.w3.org/2000/svg" xmlns:xlink="http://www.w3.org/1999/xlink" x="0px" y="0px"
	 viewBox="0 0 304 238" style="enable-background:new 0 0 304 238;" xml:space="preserve">
<style type="text/css">
	.st0{fill:#D67CFC;}
</style>
<g id="BACKGROUND">
</g>
<g id="OBJECTS">
	<g>
		<g>
			
				<rect x="199.4" y="147.5" transform="matrix(-0.7657 0.6432 -0.6432 -0.7657 469.8088 152.3029)" class="st0" width="15.6" height="28.5"/>
			<path class="st0" d="M259,222.9L259,222.9c6-5,6.6-14.1,1.3-19.9l-40.7-42.3l-15.5,13l35.1,47C244,227,253,227.9,259,222.9z"/>
			<path class="st0" d="M232.6,109.2c-2.7,18.8-12.1,36.7-27.7,49.8c-33.9,28.5-84.6,24-113-9.8C78,132.7,71.5,111.9,73.3,90.6
				c1.9-21.4,11.9-40.7,28.3-54.5c16.4-13.8,37.2-20.4,58.6-18.5c21.4,1.9,40.7,11.9,54.5,28.3C230,64.2,235.8,87.3,232.6,109.2z
				 M90.2,88.3c-0.2,1.2-0.3,2.5-0.4,3.8c-1.5,16.9,3.7,33.5,14.7,46.5c10.9,13,26.3,21,43.2,22.5c16.9,1.5,33.5-3.7,46.5-14.7
				c26.9-22.6,30.4-62.8,7.8-89.7c-10.9-13-26.3-21-43.2-22.5c-16.9-1.5-33.5,3.7-46.5,14.7C100.2,58.9,92.5,72.8,90.2,88.3z"/>
		</g>
		<g>
			<path class="st0" d="M121.1,88.4v57.8c8,4.7,17.3,7.6,27.2,8.3c0.9,0.1,1.9,0.1,2.8,0.2V88.4H121.1z"/>
			<path class="st0" d="M156.1,68.3v86.4c10.8-0.5,21.1-3.5,30-8.9V68.3H156.1z"/>
			<path class="st0" d="M190.1,141.4c24.2-20.3,27.3-56.5,7-80.6c-2.2-2.6-4.6-5-7.2-7.2v88C189.9,141.5,190,141.4,190.1,141.4z"/>
			<path class="st0" d="M96.4,104.1c1.2,11.1,5.7,21.6,13,30.3c2.2,2.6,4.6,5,7.2,7.1v-37.4H96.4z"/>
		</g>
		<g>
			<path class="st0" d="M87.3,153c-0.5-0.6-1-1.3-1.5-1.9l-8.1,7.8L54,135l-41.5,41l11.1,11.2l30.3-30L77.4,181l19.2-18.5
				C93.3,159.6,90.2,156.4,87.3,153z"/>
			<path class="st0" d="M266.9,12.5l-24.7,6.5L255,31.8l-25.6,25.4c2.7,5.1,4.8,10.4,6.4,15.8l30.2-30l12,12.2l6.7-24.6L291.6,6
				L266.9,12.5z"/>
		</g>
	</g>
</g>
<g id="TEXTS">
</g>
</svg>
